<svg width="1440" height="544" viewBox="0 0 1440 544" fill="none" xmlns="http://www.w3.org/2000/svg">
<g clip-path="url(#clip0_212_16580)" filter="url(#filter0_f_212_16580)">
<path opacity="0.15" d="M1374.19 271.264C1407.7 305.762 1434.88 365.739 1384.8 408.082C1379.63 412.447 1331.18 452.054 1258.3 447.136C1169.54 441.145 1151.34 376.306 1053.38 359.474C947.298 341.246 885.037 402.921 833.231 383.975C771.971 361.571 764.451 240.746 875.331 188.96C1008.91 126.575 1284.08 178.501 1374.19 271.264Z" fill="#EBC136"/>
<path opacity="0.15" d="M539.245 449.628C570.307 431.89 604.155 396.153 583.134 360.004C580.966 356.277 560.262 322.211 511.679 314.007C452.505 304.014 423.162 344.41 355.092 340.202C281.375 335.645 257.689 284.677 218.971 289.154C173.189 294.448 135.627 373.886 193.514 425.918C263.248 488.6 455.723 497.323 539.245 449.628Z" fill="#EBC136"/>
<path opacity="0.15" d="M721.575 349.405C706.187 329.787 690.464 292.044 703.947 257.292C705.337 253.709 718.519 221.014 744.878 215.843C776.983 209.544 790.013 251.655 826.481 251.678C865.973 251.702 881.817 202.334 902.122 209.2C926.131 217.318 941.044 298.88 906.944 347.189C865.865 405.386 762.953 402.155 721.575 349.405Z" fill="#EBC136"/>
<path opacity="0.15" d="M709.467 305.606C726.284 295.674 744.622 275.684 733.276 255.503C732.107 253.423 720.931 234.405 694.654 229.856C662.649 224.316 646.745 246.906 609.923 244.604C570.047 242.11 557.27 213.652 536.321 216.181C511.55 219.172 491.171 263.58 522.448 292.608C560.128 327.577 664.247 332.313 709.467 305.606Z" fill="#EBC136"/>
<path opacity="0.15" d="M1433.62 281.016C1451.76 265.837 1471.7 235.559 1459.95 205.513C1458.74 202.415 1447.14 174.11 1419.17 167.752C1385.09 160.007 1367.7 194.14 1328.42 191.332C1285.89 188.292 1272.75 145.867 1250.34 150.023C1223.83 154.937 1201.28 221.846 1234.15 264.802C1273.76 316.551 1384.86 321.83 1433.62 281.016Z" fill="#8047F8"/>
<path opacity="0.15" d="M1445.61 401.458C1459.71 411.645 1475.15 432.035 1465.84 452.402C1464.88 454.502 1455.7 473.692 1433.82 478.11C1407.16 483.492 1393.73 460.485 1363.03 462.551C1329.79 464.788 1319.35 493.532 1301.86 490.817C1281.17 487.607 1263.84 442.459 1289.71 413.271C1320.88 378.109 1407.69 374.067 1445.61 401.458Z" fill="#8047F8"/>
<path opacity="0.15" d="M246.937 177.329C259.507 197.536 271.932 236.081 259.695 270.902C258.433 274.492 246.5 307.24 224.055 311.838C196.717 317.44 186.675 274.542 155.792 273.647C122.347 272.677 107.765 322.221 90.7319 314.793C70.5904 306.008 59.883 223.17 89.8998 175.133C126.06 117.264 213.139 122.994 246.937 177.329Z" fill="#EBC136"/>
<path opacity="0.15" d="M888.507 452.704C862.621 434.826 837.462 398.972 863.926 363.02C866.654 359.314 892.434 325.438 939.6 317.528C997.048 307.894 1017.11 348.372 1081.84 344.561C1151.94 340.434 1183.66 289.71 1219.2 294.399C1261.23 299.942 1281.76 379.426 1217.71 431.017C1140.55 493.168 958.112 500.775 888.507 452.704Z" fill="#EBC136"/>
<path opacity="0.15" d="M814.922 421.629C836.564 403.933 859.249 369.882 841.967 338.519C840.185 335.286 823.248 305.78 787.43 301.105C743.805 295.41 724.654 333.404 674.868 333.411C620.953 333.42 600.92 288.869 572.979 295.057C539.939 302.374 516.942 375.964 561.931 419.567C616.129 472.093 756.728 469.213 814.922 421.629Z" fill="#8047F8"/>
<path opacity="0.15" d="M862.472 181.154C903.019 191.071 946.079 209.487 915.336 225.107C912.167 226.717 881.993 241.389 816.11 242.549C735.863 243.962 699.181 223.63 607.369 221.876C507.943 219.977 472.601 242.324 420.852 238.14C359.66 233.193 314.602 194.308 396 173.329C494.058 148.056 753.444 154.488 862.472 181.154Z" fill="#8047F8"/>
<path opacity="0.15" d="M195.139 406.122C214.225 385.517 234.35 346.141 219.454 310.421C217.918 306.738 203.31 273.141 171.98 268.292C133.82 262.385 116.761 306.232 73.1632 306.953C25.9491 307.734 8.74425 256.927 -15.7709 264.423C-44.7595 273.287 -65.4579 358.013 -26.3915 407.375C20.6708 466.84 143.816 461.526 195.139 406.122Z" fill="#8047F8"/>
</g>
<defs>
<filter id="filter0_f_212_16580" x="-160" y="-110" width="1760" height="826" filterUnits="userSpaceOnUse" color-interpolation-filters="sRGB">
<feFlood flood-opacity="0" result="BackgroundImageFix"/>
<feBlend mode="normal" in="SourceGraphic" in2="BackgroundImageFix" result="shape"/>
<feGaussianBlur stdDeviation="80" result="effect1_foregroundBlur_212_16580"/>
</filter>
<clipPath id="clip0_212_16580">
<rect width="1440" height="506" fill="white" transform="translate(0 50)"/>
</clipPath>
</defs>
</svg>
